<?xml version="1.0" encoding="utf-8"?>
<!-- Generator: Adobe Illustrator 24.1.2, SVG Export Plug-In . SVG Version: 6.00 Build 0)  -->
<svg version="1.1" id="Layer_1" xmlns="http://www.w3.org/2000/svg" xmlns:xlink="http://www.w3.org/1999/xlink" x="0px" y="0px"
	 viewBox="0 0 192 192" style="enable-background:new 0 0 192 192;" xml:space="preserve">
<style type="text/css">
	.st0{fill:none;}
	.st1{fill:#FFA33F;}
</style>
<rect class="st0" width="192" height="192"/>
<path class="st1" d="M81.6,192c-7.9,0-14-1.2-18.4-3.7c-4.4-2.7-8-6.8-10.7-12.2c-5.2-9.6-7.7-21.1-7.7-34.6
	c0-23.6,3.6-45.9,10.7-67.1c7.1-21.4,16.8-39.3,29.1-53.8C96.4,6.9,109.3,0,123.3,0c7.4,0,13.1,3.1,17.3,9.2
	c4.4,5.9,6.6,13.1,6.6,21.7c0,15-3.9,28-11.8,39.1c-7.6,11.1-17.9,20.3-31,27.6c-11.3,6.6-25.1,13.3-41.3,19.9l-0.7,26.5
	c0,20.6,6.3,31,18.8,31c5.2,0,10.1-1,14.7-2.9c4.9-2,10.2-4.7,15.8-8.1c6.6-3.9,11.3-5.9,14-5.9c4.2,0,6.3,2.2,6.3,6.6
	c0,3.2-3.1,7-9.2,11.4c-5.9,4.4-12.9,8.2-21,11.4C93.8,190.5,87,192,81.6,192z M66.1,99.9c16.5-6.6,29-12.5,37.6-17.7
	c8.6-5.2,15.1-11.7,19.5-19.5c4.7-7.9,7-18.2,7-31c0-9.6-4.1-14.4-12.2-14.4c-7.1,0-15.5,6.5-25.1,19.5C83,49.9,74.9,66.9,68.7,88.1
	C67,94,66.1,97.9,66.1,99.9z"/>
</svg>
