<?xml version="1.0" encoding="utf-8"?>
<!-- Generator: Adobe Illustrator 24.1.2, SVG Export Plug-In . SVG Version: 6.00 Build 0)  -->
<svg version="1.1" id="Layer_1" xmlns="http://www.w3.org/2000/svg" xmlns:xlink="http://www.w3.org/1999/xlink" x="0px" y="0px"
	 viewBox="0 0 192 192" style="enable-background:new 0 0 192 192;" xml:space="preserve">
<style type="text/css">
	.st0{fill:none;}
	.st1{fill:#FFA33F;}
</style>
<rect class="st0" width="192" height="192"/>
<path class="st1" d="M81.6,147.9c-7.9,0-14-0.7-18.4-2c-4.4-1.5-8-3.7-10.7-6.6c-5.2-5.2-7.7-11.4-7.7-18.7
	c0-12.8,3.6-24.9,10.7-36.3c7.1-11.6,16.8-21.3,29.1-29.1c11.8-7.4,24.7-11.2,38.7-11.2c7.4,0,13.1,1.7,17.3,5
	c4.4,3.2,6.6,7.1,6.6,11.8c0,8.1-3.9,15.2-11.8,21.1c-7.6,6-17.9,11-31,15c-11.3,3.6-25.1,7.2-41.3,10.8L62.5,122
	c0,11.2,6.3,16.7,18.8,16.7c5.2,0,10.1-0.5,14.7-1.6c4.9-1.1,10.2-2.5,15.8-4.4c6.6-2.1,11.3-3.2,14-3.2c4.2,0,6.3,1.2,6.3,3.6
	c0,1.7-3.1,3.8-9.2,6.2c-5.9,2.4-12.9,4.5-21,6.2C93.8,147.1,87,147.9,81.6,147.9z M66.1,98.1c16.5-3.6,29-6.8,37.6-9.6
	c8.6-2.8,15.1-6.3,19.5-10.6c4.7-4.3,7-9.8,7-16.7c0-5.2-4.1-7.8-12.2-7.8c-7.1,0-15.5,3.5-25.1,10.6C83,71,74.9,80.3,68.7,91.7
	C67,94.9,66.1,97,66.1,98.1z"/>
</svg>
